<?xml version="1.0" encoding="UTF-8"?>
<svg version="1.1" xmlns="http://www.w3.org/2000/svg" width="444" height="93">
<path d="M0 0 C146.52 0 293.04 0 444 0 C444 30.69 444 61.38 444 93 C297.48 93 150.96 93 0 93 C0 62.31 0 31.62 0 0 Z " fill="#FBFDFC" transform="translate(0,0)"/>
<path d="M0 0 C3.25 1.9375 3.25 1.9375 6 4 C8.22602615 4.76939681 8.22602615 4.76939681 10 5 C10 4.34 10 3.68 10 3 C14.61972693 0.22816384 18.67253892 -1.02991339 24 0 C28.63965276 1.86137629 32.84643111 4.23095407 37 7 C37 7.66 37 8.32 37 9 C37.763125 9.433125 38.52625 9.86625 39.3125 10.3125 C42.86853477 12.54535904 44.38144435 15.02062193 45.625 19 C45.74875 19.66 45.8725 20.32 46 21 C46.2784375 22.175625 46.2784375 22.175625 46.5625 23.375 C47.04821661 26.28929969 47.06858805 29.05071374 47 32 C42.44262737 31.56179109 39.42346555 31.14958831 36 28 C39.2870757 31.81300782 42.39727838 33.22972246 47 35 C47 36.98 47 38.96 47 41 C45.72791378 40.37755401 44.45738118 39.75193233 43.1875 39.125 C42.47980469 38.77695312 41.77210937 38.42890625 41.04296875 38.0703125 C39 37 39 37 36 35 C39.11016455 38.28788824 42.01618925 40.83735988 46 43 C45.67 44.65 45.34 46.3 45 48 C42.03 46.02 39.06 44.04 36 42 C36.78375 42.78375 37.5675 43.5675 38.375 44.375 C43 49 43 49 43.1875 52 C43 55 43 55 42 57 C41.34 57 40.68 57 40 57 C39.649375 56.175 39.29875 55.35 38.9375 54.5 C36.75008617 50.06146126 33.33674071 46.60185162 30 43 C31.53665783 45.6891512 33.08780123 48.10642574 35.0625 50.5 C37.01682862 53.02171435 38.15590568 54.93056612 39 58 C38.625 60.8125 38.625 60.8125 38 63 C37.01 63 36.02 63 35 63 C33.45704199 60.85224966 32.1240944 58.78165246 30.8125 56.5 C30.44447266 55.87996094 30.07644531 55.25992188 29.69726562 54.62109375 C28.7883265 53.0865212 27.8928753 51.5439744 27 50 C27.33773437 50.67546875 27.67546875 51.3509375 28.0234375 52.046875 C29.34895833 54.69791667 30.67447917 57.34895833 32 60 C32.5878125 61.06734375 32.5878125 61.06734375 33.1875 62.15625 C34.30909536 64.7014087 33.72756822 66.38075439 33 69 C32.01 69 31.02 69 30 69 C28.35 65.7 26.7 62.4 25 59 C26.0209375 61.3203125 26.0209375 61.3203125 27.0625 63.6875 C28.78960563 67.61274007 29.18956883 69.84773144 28 74 C27.01 74 26.02 74 25 74 C23.68 70.7 22.36 67.4 21 64 C21.33 64.86625 21.66 65.7325 22 66.625 C22.98731341 69.95718275 23.16420974 72.55159538 23 76 C21.02 76.495 21.02 76.495 19 77 C18.34 75.02 17.68 73.04 17 71 C17 73.64 17 76.28 17 79 C16.01 79 15.02 79 14 79 C13.67 77.35 13.34 75.7 13 74 C12.67 75.65 12.34 77.3 12 79 C10.00045254 79.04254356 7.99958364 79.04080783 6 79 C5.67 78.67 5.34 78.34 5 78 C4.67 78.66 4.34 79.32 4 80 C2.68 80 1.36 80 0 80 C0 76.7 0 73.4 0 70 C-0.66 72.64 -1.32 75.28 -2 78 C-3.32 77.67 -4.64 77.34 -6 77 C-6.07622858 73.03611362 -5.9681648 69.8726592 -5 66 C-5.99 68.97 -6.98 71.94 -8 75 C-9.32 74.67 -10.64 74.34 -12 74 C-11.45144652 69.428721 -10.58255197 65.32564205 -9 61 C-10.65 64.3 -12.3 67.6 -14 71 C-15.485 70.01 -15.485 70.01 -17 69 C-16.57664615 62.50857435 -14.08900201 57.66507011 -11 52 C-11.96423026 53.39176632 -12.92111602 54.7886223 -13.875 56.1875 C-14.67550781 57.35345703 -14.67550781 57.35345703 -15.4921875 58.54296875 C-16.98015439 60.9676609 -18.02428078 63.3333499 -19 66 C-19.99 65.34 -20.98 64.68 -22 64 C-21.72714579 57.86078017 -20.93572932 53.947774 -17 49 C-16.2575 48.05125 -15.515 47.1025 -14.75 46.125 C-14.1725 45.42375 -13.595 44.7225 -13 44 C-18.19967603 47.75532158 -21.32806914 52.21081646 -24 58 C-26 56 -26 56 -26.4375 53.25 C-25.83839921 48.79953698 -24.06348779 47.21666218 -21 44 C-21.763125 44.474375 -22.52625 44.94875 -23.3125 45.4375 C-26 47 -26 47 -29 48 C-29.36290323 43.52419355 -29.36290323 43.52419355 -27.875 41.375 C-25.40252881 39.56185446 -22.77304157 38.29408606 -20 37 C-20 36.34 -20 35.68 -20 35 C-20.63808594 35.433125 -21.27617187 35.86625 -21.93359375 36.3125 C-22.75988281 36.869375 -23.58617187 37.42625 -24.4375 38 C-25.26121094 38.556875 -26.08492187 39.11375 -26.93359375 39.6875 C-29 41 -29 41 -30 41 C-30.04254356 39.00045254 -30.04080783 36.99958364 -30 35 C-29.505 34.505 -29.505 34.505 -29 34 C-29.66 33.67 -30.32 33.34 -31 33 C-31 23 -31 23 -28 20 C-28 18.68 -28 17.36 -28 16 C-27.67 15.34 -27.34 14.68 -27 14 C-26.34 14 -25.68 14 -25 14 C-24.67 12.68 -24.34 11.36 -24 10 C-23.01 10 -22.02 10 -21 10 C-21 9.01 -21 8.02 -21 7 C-18.91796875 5.4296875 -18.91796875 5.4296875 -16.1875 3.875 C-15.29417969 3.35679688 -14.40085937 2.83859375 -13.48046875 2.3046875 C-9.07230303 -0.01393825 -4.92630496 -0.71043487 0 0 Z " fill="#141414" transform="translate(37,8)"/>
<path d="M0 0 C2.5625 0.1875 2.5625 0.1875 4.5625 2.1875 C4.6875 5.3125 4.6875 5.3125 4.5625 8.1875 C3.5725 8.5175 2.5825 8.8475 1.5625 9.1875 C1.5625 7.5375 1.5625 5.8875 1.5625 4.1875 C-0.4175 4.5175 -2.3975 4.8475 -4.4375 5.1875 C-4.4375 5.8475 -4.4375 6.5075 -4.4375 7.1875 C-3.839375 7.22875 -3.24125 7.27 -2.625 7.3125 C-0.4375 8.1875 -0.4375 8.1875 1.3125 10.6875 C2.83615963 14.95374696 3.64570796 18.71820101 2.5625 23.1875 C-0.3125 25.5625 -0.3125 25.5625 -3.4375 27.1875 C-4.0975 28.1775 -4.7575 29.1675 -5.4375 30.1875 C-6.0975 30.1875 -6.7575 30.1875 -7.4375 30.1875 C-8.4275 27.2175 -9.4175 24.2475 -10.4375 21.1875 C-9.1175 20.5275 -7.7975 19.8675 -6.4375 19.1875 C-5.9425 17.7025 -5.9425 17.7025 -5.4375 16.1875 C-7.4175 16.8475 -9.3975 17.5075 -11.4375 18.1875 C-10.72297412 22.95100585 -9.64215156 27.52951396 -8.4375 32.1875 C-14.84404045 33.46880809 -21.04374381 33.78593905 -27.4375 32.1875 C-26.84130045 27.31853697 -25.86773178 22.85959049 -24.4375 18.1875 C-26.7475 17.8575 -29.0575 17.5275 -31.4375 17.1875 C-29.71523504 20.43599977 -29.71523504 20.43599977 -26.4375 21.1875 C-26.98473683 24.56212715 -27.4924 26.26985 -29.4375 29.1875 C-30.4275 28.8575 -31.4175 28.5275 -32.4375 28.1875 C-32.4375 27.5275 -32.4375 26.8675 -32.4375 26.1875 C-33.406875 25.878125 -34.37625 25.56875 -35.375 25.25 C-38.4375 24.1875 -38.4375 24.1875 -39.4375 23.1875 C-39.8396674 17.45661449 -39.6479036 12.13971832 -36.4375 7.1875 C-31.39020577 4.02057029 -27.1951632 3.88446509 -21.4375 4.1875 C-20.4475 6.1675 -19.4575 8.1475 -18.4375 10.1875 C-17.798125 9.383125 -17.15875 8.57875 -16.5 7.75 C-14.4375 5.1875 -14.4375 5.1875 -13.4375 4.1875 C-10.74667128 4.36385452 -8.10898554 4.80585921 -5.4375 5.1875 C-5.128125 4.548125 -4.81875 3.90875 -4.5 3.25 C-2.94235437 0.22633495 -2.94235437 0.22633495 0 0 Z " fill="#F4F4F4" transform="translate(63.4375,17.8125)"/>
<path d="M0 0 C3.24983 -0.08728882 6.4993575 -0.14048658 9.75 -0.1875 C11.13058594 -0.22520508 11.13058594 -0.22520508 12.5390625 -0.26367188 C13.42851563 -0.27333984 14.31796875 -0.28300781 15.234375 -0.29296875 C16.05131836 -0.3086792 16.86826172 -0.32438965 17.70996094 -0.34057617 C20.55485215 0.08251799 21.91578273 1.05059017 24 3 C24.42578125 5.1640625 24.42578125 5.1640625 24.3125 7.625 C24.27253906 8.50671875 24.23257813 9.3884375 24.19140625 10.296875 C24.09666016 11.63492188 24.09666016 11.63492188 24 13 C23.96777344 13.83015625 23.93554688 14.6603125 23.90234375 15.515625 C23.64837546 19.44887749 23.46406763 21.42343113 20.9375 24.5625 C20.298125 25.036875 19.65875 25.51125 19 26 C19.66 26 20.32 26 21 26 C20.98839844 27.18078125 20.97679687 28.3615625 20.96484375 29.578125 C20.95546248 31.13541508 20.94636264 32.69270688 20.9375 34.25 C20.92912109 35.02730469 20.92074219 35.80460937 20.91210938 36.60546875 C20.90888672 37.35957031 20.90566406 38.11367187 20.90234375 38.890625 C20.89710693 39.58188477 20.89187012 40.27314453 20.88647461 40.98535156 C21.00562029 43.09973898 21.42381763 44.96641515 22 47 C16.48602676 47.36759822 16.48602676 47.36759822 14.33276367 45.73901367 C12.74561325 43.66807166 12.58541624 42.57207202 12.48828125 39.98828125 C12.43510742 38.85229492 12.43510742 38.85229492 12.38085938 37.69335938 C12.35830078 36.90767578 12.33574219 36.12199219 12.3125 35.3125 C12.27833984 34.51521484 12.24417969 33.71792969 12.20898438 32.89648438 C12.12661896 30.93148096 12.06162933 28.96576304 12 27 C10.02 26.67 8.04 26.34 6 26 C6 29.63 6 33.26 6 37 C6.99 37 7.98 37 9 37 C9 37.66 9 38.32 9 39 C4.05 39 -0.9 39 -6 39 C-6 38.34 -6 37.68 -6 37 C-4.68 37 -3.36 37 -2 37 C-1.91959473 36.43192627 -1.83918945 35.86385254 -1.75634766 35.27856445 C-0.23019548 24.5095035 1.3056579 13.74412227 3 3 C2.01 3 1.02 3 0 3 C0 2.01 0 1.02 0 0 Z " fill="#1B975F" transform="translate(109,26)"/>
<path d="M0 0 C4.76884567 -0.07425143 9.5373536 -0.12864936 14.30664062 -0.16479492 C15.92844506 -0.17986565 17.55020884 -0.20032593 19.171875 -0.22631836 C21.50531046 -0.26277829 23.83820631 -0.27974314 26.171875 -0.29296875 C26.89493835 -0.30845261 27.61800171 -0.32393646 28.36297607 -0.33988953 C31.48751088 -0.34093008 33.68586967 -0.16754654 36.46582031 1.31518555 C38 3 38 3 38.375 6.25 C37.99367197 10.06328031 37.07611018 13.32856526 36 17 C35.56436368 19.99200772 35.25953823 22.98799056 35 26 C35.99 26 36.98 26 38 26 C38 26.66 38 27.32 38 28 C33.05 28 28.1 28 23 28 C23 27.34 23 26.68 23 26 C24.32 26 25.64 26 27 26 C27.05534912 25.44538086 27.11069824 24.89076172 27.16772461 24.31933594 C27.42128107 21.7959083 27.67934505 19.27296117 27.9375 16.75 C28.02451172 15.87730469 28.11152344 15.00460938 28.20117188 14.10546875 C28.28818359 13.26113281 28.37519531 12.41679688 28.46484375 11.546875 C28.543396 10.77182617 28.62194824 9.99677734 28.70288086 9.19824219 C28.99002914 7.07376962 29.43794772 5.06703475 30 3 C28.02 3 26.04 3 24 3 C23.87882812 3.97839844 23.75765625 4.95679688 23.6328125 5.96484375 C22.73279307 13.0626831 21.70876554 20.04288317 20 27 C18.02 27 16.04 27 14 27 C14.31212639 24.33328914 14.62469221 21.66663095 14.9375 19 C15.02451172 18.25621094 15.11152344 17.51242188 15.20117188 16.74609375 C15.77853831 11.82778708 16.38027284 6.91315228 17 2 C15.35 2.33 13.7 2.66 12 3 C11.91959473 3.589021 11.83918945 4.17804199 11.75634766 4.78491211 C11.38307525 7.50298485 11.00406921 10.22022988 10.625 12.9375 C10.43550781 14.32678711 10.43550781 14.32678711 10.2421875 15.74414062 C7.78472531 33.25355872 7.78472531 33.25355872 2 38 C1.505 38.495 1.505 38.495 1 39 C-1.67058851 39.14115161 -4.32432238 39.04247107 -7 39 C-6.67 38.01 -6.34 37.02 -6 36 C-4.515 35.505 -4.515 35.505 -3 35 C-2.82609741 33.85785034 -2.82609741 33.85785034 -2.64868164 32.69262695 C-2.1211456 29.23240182 -1.59184113 25.77244944 -1.0625 22.3125 C-0.88009766 21.11431641 -0.69769531 19.91613281 -0.50976562 18.68164062 C-0.33251953 17.52470703 -0.15527344 16.36777344 0.02734375 15.17578125 C0.18968506 14.11270752 0.35202637 13.04963379 0.51928711 11.9543457 C0.95325207 9.28730154 1.45040383 6.64533255 2 4 C1.34 4 0.68 4 0 4 C0 2.68 0 1.36 0 0 Z " fill="#20A05E" transform="translate(238,37)"/>
<path d="M0 0 C0.33 0 0.66 0 1 0 C1.04125 0.928125 1.0825 1.85625 1.125 2.8125 C1.41375 3.864375 1.7025 4.91625 2 6 C3.96466413 7.06775224 5.96855359 8.06553465 8 9 C11.37498631 12.82498449 11.09854379 15.96979926 10.90625 20.78515625 C11.04180392 23.98761765 12.43246582 26.25681518 14 29 C14 29.99 14 30.98 14 32 C13.34 32 12.68 32 12 32 C11.9175 32.515625 11.835 33.03125 11.75 33.5625 C10.87765494 36.39762144 9.43150299 38.71207468 7.921875 41.25 C6.76468647 43.44669687 6.29759392 45.54485016 6 48 C4.68 47.67 3.36 47.34 2 47 C2.54855348 42.428721 3.41744803 38.32564205 5 34 C3.35 37.3 1.7 40.6 0 44 C-0.99 43.34 -1.98 42.68 -3 42 C-2.57664615 35.50857435 -0.08900201 30.66507011 3 25 C2.03576974 26.39176632 1.07888398 27.7886223 0.125 29.1875 C-0.67550781 30.35345703 -0.67550781 30.35345703 -1.4921875 31.54296875 C-2.98015439 33.9676609 -4.02428078 36.3333499 -5 39 C-5.99 38.34 -6.98 37.68 -8 37 C-7.72714579 30.86078017 -6.93572932 26.947774 -3 22 C-2.2575 21.05125 -1.515 20.1025 -0.75 19.125 C-0.1725 18.42375 0.405 17.7225 1 17 C-4.19967603 20.75532158 -7.32806914 25.21081646 -10 31 C-12 29 -12 29 -12.4375 26.25 C-11.83839921 21.79953698 -10.06348779 20.21666218 -7 17 C-7.763125 17.474375 -8.52625 17.94875 -9.3125 18.4375 C-12 20 -12 20 -15 21 C-15.36290323 16.52419355 -15.36290323 16.52419355 -13.875 14.375 C-11.40252881 12.56185446 -8.77304157 11.29408606 -6 10 C-6 9.34 -6 8.68 -6 8 C-6.63808594 8.433125 -7.27617187 8.86625 -7.93359375 9.3125 C-8.75988281 9.869375 -9.58617187 10.42625 -10.4375 11 C-11.67306641 11.8353125 -11.67306641 11.8353125 -12.93359375 12.6875 C-15 14 -15 14 -16 14 C-16 12.02 -16 10.04 -16 8 C-14.58521865 7.35004703 -13.16808513 6.70521278 -11.75 6.0625 C-10.56664062 5.52302734 -10.56664062 5.52302734 -9.359375 4.97265625 C-6.54282939 3.81153066 -4.05480984 3 -1 3 C-0.67 2.01 -0.34 1.02 0 0 Z " fill="#131313" transform="translate(23,35)"/>
<path d="M0 0 C3.4165052 -0.08724706 6.83272313 -0.14047325 10.25 -0.1875 C11.70212891 -0.22520508 11.70212891 -0.22520508 13.18359375 -0.26367188 C14.58544922 -0.27817383 14.58544922 -0.27817383 16.015625 -0.29296875 C16.87446289 -0.3086792 17.73330078 -0.32438965 18.61816406 -0.34057617 C21.53783578 0.07690456 22.89499662 0.95938637 25 3 C25.91978748 11.19760593 23.39126213 18.67049797 20 26 C16.04 26 12.08 26 8 26 C7.67 29.63 7.34 33.26 7 37 C7.99 37 8.98 37 10 37 C10 37.66 10 38.32 10 39 C5.05 39 0.1 39 -5 39 C-5 38.34 -5 37.68 -5 37 C-3.68 37 -2.36 37 -1 37 C-0.44690613 31.12779066 0.04928616 25.26059907 0.4375 19.375 C0.83030272 14.07216335 1.69079288 9.14954802 3 4 C2.01 4 1.02 4 0 4 C0 2.68 0 1.36 0 0 Z " fill="#21A063" transform="translate(288,26)"/>
<path d="M0 0 C1.13308594 -0.02578125 2.26617187 -0.0515625 3.43359375 -0.078125 C6.85659912 0.28084186 8.27819173 0.68437298 10.5625 3.25 C10.83984375 5.421875 10.83984375 5.421875 10.5 8 C10.37625 8.96035156 10.2525 9.92070313 10.125 10.91015625 C9.08990519 17.05603169 7.8699534 23.15677376 6.5625 29.25 C3.62445004 29.33086376 0.68861925 29.3904283 -2.25 29.4375 C-3.08337891 29.46263672 -3.91675781 29.48777344 -4.77539062 29.51367188 C-5.97905273 29.52817383 -5.97905273 29.52817383 -7.20703125 29.54296875 C-8.31461792 29.56653442 -8.31461792 29.56653442 -9.44458008 29.59057617 C-12.00635215 29.15278712 -12.87471131 28.28990175 -14.4375 26.25 C-14.73046875 23.76953125 -14.73046875 23.76953125 -14.625 21.0625 C-14.59792969 20.16144531 -14.57085937 19.26039062 -14.54296875 18.33203125 C-14.50816406 17.64496094 -14.47335937 16.95789063 -14.4375 16.25 C-12.4575 15.59 -10.4775 14.93 -8.4375 14.25 C-9.7575 13.92 -11.0775 13.59 -12.4375 13.25 C-12.80351307 5.92973856 -12.80351307 5.92973856 -11.125 2.8125 C-7.84602368 -0.22358918 -4.25898756 0.05801118 0 0 Z " fill="#5DCD91" transform="translate(408.4375,36.75)"/>
<path d="M0 0 C1.02222656 -0.00773437 2.04445313 -0.01546875 3.09765625 -0.0234375 C6.38886528 0.43832773 7.77481733 0.8337182 9.9375 3.375 C10.58068566 8.86260534 9.35169567 13.9469256 8.0625 19.25 C7.80146484 20.40628906 7.80146484 20.40628906 7.53515625 21.5859375 C7.07226498 23.53350964 6.51233539 25.45748342 5.9375 27.375 C2.91888236 28.88430882 -0.19241303 28.55938844 -3.5 28.5625 C-4.18126953 28.57474609 -4.86253906 28.58699219 -5.56445312 28.59960938 C-9.29079809 28.61055848 -10.88241571 28.49505619 -14.0625 26.375 C-14.69387006 21.00835447 -13.79142857 15.86215176 -12.875 10.5625 C-12.65457031 9.27730469 -12.43414062 7.99210937 -12.20703125 6.66796875 C-11.0625 3.375 -11.0625 3.375 -8.828125 1.44921875 C-5.70339887 0.23551863 -3.34694973 -0.02538774 0 0 Z " fill="#219F60" transform="translate(362.0625,36.625)"/>
<path d="M0 0 C1.68996094 0.00580078 1.68996094 0.00580078 3.4140625 0.01171875 C6.375 0.3125 6.375 0.3125 9.375 2.3125 C9.703125 4.1875 9.703125 4.1875 9.625 6.3125 C9.60953125 7.01375 9.5940625 7.715 9.578125 8.4375 C9.375 10.3125 9.375 10.3125 8.375 12.3125 C6.065 12.3125 3.755 12.3125 1.375 12.3125 C1.375 9.3425 1.375 6.3725 1.375 3.3125 C-0.275 3.3125 -1.925 3.3125 -3.625 3.3125 C-3.295 6.2825 -2.965 9.2525 -2.625 12.3125 C-1.34625 12.786875 -0.0675 13.26125 1.25 13.75 C3.35610049 14.53129534 5.36511473 15.30755737 7.375 16.3125 C7.66863808 21.30434736 7.45336372 24.28694744 4.375 28.3125 C1.42111864 29.78944068 -1.27661882 29.52180797 -4.5625 29.5625 C-6.43228516 29.60117188 -6.43228516 29.60117188 -8.33984375 29.640625 C-11.625 29.3125 -11.625 29.3125 -13.5546875 28.12109375 C-15.00082756 25.67743373 -14.92234663 23.94439683 -14.8125 21.125 C-14.78542969 20.22394531 -14.75835937 19.32289062 -14.73046875 18.39453125 C-14.69566406 17.70746094 -14.66085938 17.02039063 -14.625 16.3125 C-12.645 16.3125 -10.665 16.3125 -8.625 16.3125 C-9.12 15.838125 -9.615 15.36375 -10.125 14.875 C-12.03061431 11.61957555 -12.06877102 9.13932438 -12.21875 5.43359375 C-11.625 3.3125 -11.625 3.3125 -9.5078125 1.5546875 C-6.12646156 0.09768262 -3.6714864 -0.05486129 0 0 Z " fill="#40B97D" transform="translate(184.625,36.6875)"/>
<path d="M0 0 C1.68996094 0.00580078 1.68996094 0.00580078 3.4140625 0.01171875 C6.375 0.3125 6.375 0.3125 9.375 2.3125 C9.703125 4.1875 9.703125 4.1875 9.625 6.3125 C9.60953125 7.01375 9.5940625 7.715 9.578125 8.4375 C9.375 10.3125 9.375 10.3125 8.375 12.3125 C3.755 12.3125 -0.865 12.3125 -5.625 12.3125 C-5.625 16.6025 -5.625 20.8925 -5.625 25.3125 C-4.305 25.3125 -2.985 25.3125 -1.625 25.3125 C-1.13 20.8575 -1.13 20.8575 -0.625 16.3125 C2.345 16.3125 5.315 16.3125 8.375 16.3125 C6.91348174 24.71622997 6.91348174 24.71622997 4.7734375 27.0859375 C1.45795158 28.78147916 -1.61677353 28.71200255 -5.25 28.625 C-5.930625 28.62822266 -6.61125 28.63144531 -7.3125 28.63476562 C-12.35757212 28.57992788 -12.35757212 28.57992788 -14.625 26.3125 C-15.6536816 18.85789831 -14.72925761 10.17788885 -11.625 3.3125 C-7.87350977 0.20069549 -4.78292295 -0.07146896 0 0 Z " fill="#129454" transform="translate(154.625,36.6875)"/>
<path d="M0 0 C3.3 0 6.6 0 10 0 C9.78537109 1.17949219 9.78537109 1.17949219 9.56640625 2.3828125 C8.86415887 6.86750955 8.39648782 11.3599198 7.9375 15.875 C7.84662109 16.75414063 7.75574219 17.63328125 7.66210938 18.5390625 C7.43973974 20.6925369 7.21964031 22.84624552 7 25 C9.50652627 24.37023026 9.50652627 24.37023026 12 23 C13.0515427 20.72419967 13.0515427 20.72419967 13.36328125 17.9921875 C13.52763672 17.00605469 13.69199219 16.01992188 13.86132812 15.00390625 C14.01021484 13.97136719 14.15910156 12.93882813 14.3125 11.875 C14.56483398 10.31458984 14.56483398 10.31458984 14.82226562 8.72265625 C15.2351578 6.15092784 15.6267329 3.57772754 16 1 C15.01 0.67 14.02 0.34 13 0 C17.62 0 22.24 0 27 0 C25.68 0.33 24.36 0.66 23 1 C22.01 8.92 21.02 16.84 20 25 C20.99 25 21.98 25 23 25 C23 25.99 23 26.98 23 28 C19.37515001 28.08681476 15.75056557 28.14032721 12.125 28.1875 C11.09246094 28.21263672 10.05992187 28.23777344 8.99609375 28.26367188 C8.00996094 28.27333984 7.02382812 28.28300781 6.0078125 28.29296875 C5.09660645 28.3086792 4.18540039 28.32438965 3.24658203 28.34057617 C2.50520996 28.22818604 1.76383789 28.1157959 1 28 C-1.69772969 23.95340547 -1.54296532 20.67834076 -1 16 C0.0784316 10.93452017 1.53480125 5.96466899 3 1 C2.01 0.67 1.02 0.34 0 0 Z " fill="#2CA969" transform="translate(204,38)"/>
<path d="M0 0 C2.61966975 0.44726069 4.36490251 0.94627313 6.5625 2.4375 C6.8925 3.4275 7.2225 4.4175 7.5625 5.4375 C4.91511084 6.8981285 3.66801666 7.4375 0.5625 7.4375 C0.48 8.076875 0.3975 8.71625 0.3125 9.375 C-0.7252846 13.61262044 -2.34045033 17.60741683 -4.4375 21.4375 C-5.0975 21.7675 -5.7575 22.0975 -6.4375 22.4375 C-6.4375 21.7775 -6.4375 21.1175 -6.4375 20.4375 C-7.448125 21.118125 -8.45875 21.79875 -9.5 22.5 C-13.39127757 24.7632941 -16.04743163 24.51261878 -20.4375 23.4375 C-20.4375 13.4375 -20.4375 13.4375 -17.4375 10.4375 C-17.4375 9.1175 -17.4375 7.7975 -17.4375 6.4375 C-17.1075 5.7775 -16.7775 5.1175 -16.4375 4.4375 C-15.7775 4.4375 -15.1175 4.4375 -14.4375 4.4375 C-14.1075 3.4475 -13.7775 2.4575 -13.4375 1.4375 C-13.4375 2.4275 -13.4375 3.4175 -13.4375 4.4375 C-12.014375 4.4065625 -12.014375 4.4065625 -10.5625 4.375 C-7.4375 4.4375 -7.4375 4.4375 -5.4375 5.4375 C-4.8496875 4.2 -4.8496875 4.2 -4.25 2.9375 C-2.4375 0.4375 -2.4375 0.4375 0 0 Z " fill="#141414" transform="translate(26.4375,17.5625)"/>
<path d="M0 0 C3.4165052 -0.08724706 6.83272313 -0.14047325 10.25 -0.1875 C11.70212891 -0.22520508 11.70212891 -0.22520508 13.18359375 -0.26367188 C14.58544922 -0.27817383 14.58544922 -0.27817383 16.015625 -0.29296875 C16.87446289 -0.3086792 17.73330078 -0.32438965 18.61816406 -0.34057617 C21.52491829 0.0750575 22.89143698 0.98595877 25 3 C25.171875 5.26171875 25.171875 5.26171875 24.75 7.6875 C24.62109375 8.49574219 24.4921875 9.30398437 24.359375 10.13671875 C24.24078125 10.75160156 24.1221875 11.36648437 24 12 C21.36 12 18.72 12 16 12 C16.33 9.03 16.66 6.06 17 3 C15.02 3 13.04 3 11 3 C10.95101563 3.65484375 10.90203125 4.3096875 10.8515625 4.984375 C10.27133394 12.067165 9.25700294 19.0071584 8 26 C8.99 26 9.98 26 11 26 C11 26.66 11 27.32 11 28 C6.05 28 1.1 28 -4 28 C-4 27.34 -4 26.68 -4 26 C-2.68 26 -1.36 26 0 26 C1.485 14.615 1.485 14.615 3 3 C2.01 3 1.02 3 0 3 C0 2.01 0 1.02 0 0 Z " fill="#1B9D5B" transform="translate(318,37)"/>
<path d="M0 0 C4.76884567 -0.07425143 9.5373536 -0.12864936 14.30664062 -0.16479492 C15.92844506 -0.17986565 17.55020884 -0.20032593 19.171875 -0.22631836 C21.50531046 -0.26277829 23.83820631 -0.27974314 26.171875 -0.29296875 C26.89493835 -0.30845261 27.61800171 -0.32393646 28.36297607 -0.33988953 C31.48751088 -0.34093008 33.68586967 -0.16754654 36.46582031 1.31518555 C38 3 38 3 38.375 6.25 C37.99367197 10.06328031 37.07611018 13.32856526 36 17 C35.56436368 19.99200772 35.25953823 22.98799056 35 26 C35.99 26 36.98 26 38 26 C38 26.66 38 27.32 38 28 C33.05 28 28.1 28 23 28 C23 27.34 23 26.68 23 26 C24.32 26 25.64 26 27 26 C27.05534912 25.44538086 27.11069824 24.89076172 27.16772461 24.31933594 C27.42128107 21.7959083 27.67934505 19.27296117 27.9375 16.75 C28.02451172 15.87730469 28.11152344 15.00460938 28.20117188 14.10546875 C28.28818359 13.26113281 28.37519531 12.41679688 28.46484375 11.546875 C28.543396 10.77182617 28.62194824 9.99677734 28.70288086 9.19824219 C28.99002914 7.07376962 29.43794772 5.06703475 30 3 C28.35 3 26.7 3 25 3 C25 2.67 25 2.34 25 2 C26.4540625 2.0309375 26.4540625 2.0309375 27.9375 2.0625 C30.87465895 2.35618499 30.87465895 2.35618499 32 1 C22.76 1.33 13.52 1.66 4 2 C3.67 4.97 3.34 7.94 3 11 C2.69295404 13.11844558 2.37028042 15.23472385 2.02734375 17.34765625 C1.85009766 18.44658203 1.67285156 19.54550781 1.49023438 20.67773438 C1.30783203 21.79470703 1.12542969 22.91167969 0.9375 24.0625 C0.6580957 25.79016602 0.6580957 25.79016602 0.37304688 27.55273438 C-0.08266741 30.36881495 -0.54039376 33.18455247 -1 36 C0.98 35.34 2.96 34.68 5 34 C4 37 4 37 1 39 C-1.04296875 39.1953125 -1.04296875 39.1953125 -3.1875 39.125 C-4.445625 39.08375 -5.70375 39.0425 -7 39 C-6.67 38.01 -6.34 37.02 -6 36 C-4.515 35.505 -4.515 35.505 -3 35 C-2.82609741 33.85785034 -2.82609741 33.85785034 -2.64868164 32.69262695 C-2.1211456 29.23240182 -1.59184113 25.77244944 -1.0625 22.3125 C-0.88009766 21.11431641 -0.69769531 19.91613281 -0.50976562 18.68164062 C-0.33251953 17.52470703 -0.15527344 16.36777344 0.02734375 15.17578125 C0.18968506 14.11270752 0.35202637 13.04963379 0.51928711 11.9543457 C0.95325207 9.28730154 1.45040383 6.64533255 2 4 C1.34 4 0.68 4 0 4 C0 2.68 0 1.36 0 0 Z " fill="#23A361" transform="translate(238,37)"/>
<path d="M0 0 C3.96 0 7.92 0 12 0 C11.01 8.25 10.02 16.5 9 25 C9.66 25 10.32 25 11 25 C11 26.32 11 27.64 11 29 C5.72 29 0.44 29 -5 29 C-5 27.68 -5 26.36 -5 25 C-3.68 25 -2.36 25 -1 25 C-1.020625 24.05125 -1.04125 23.1025 -1.0625 22.125 C-1 19 -1 19 0 17 C0.38923527 14.63049479 0.7380578 12.2542428 1.0625 9.875 C1.23910156 8.59367187 1.41570312 7.31234375 1.59765625 5.9921875 C1.73042969 5.00476562 1.86320312 4.01734375 2 3 C1.34 3 0.68 3 0 3 C0 2.01 0 1.02 0 0 Z " fill="#129454" transform="translate(427,37)"/>
<path d="M0 0 C1.98 0 3.96 0 6 0 C5.2036893 7.69767006 4.12178733 15.34352921 3 23 C4.65 23 6.3 23 8 23 C8 23.33 8 23.66 8 24 C6.02 24 4.04 24 2 24 C2 27.63 2 31.26 2 35 C2.99 35 3.98 35 5 35 C5 35.66 5 36.32 5 37 C0.05 37 -4.9 37 -10 37 C-10 36.34 -10 35.68 -10 35 C-8.68 35 -7.36 35 -6 35 C-5.01 28.07 -4.02 21.14 -3 14 C-2.34 14 -1.68 14 -1 14 C-0.67 9.38 -0.34 4.76 0 0 Z " fill="#169758" transform="translate(113,28)"/>
<path d="M0 0 C2.475 0.495 2.475 0.495 5 1 C4.8608331 4.41697238 4.71250415 7.83348757 4.5625 11.25 C4.52318359 12.21808594 4.48386719 13.18617187 4.44335938 14.18359375 C4.40146484 15.11816406 4.35957031 16.05273438 4.31640625 17.015625 C4.27974854 17.87446289 4.24309082 18.73330078 4.20532227 19.61816406 C4.01296486 21.84960143 3.61153756 23.84982524 3 26 C0.20807795 26.05380578 -2.5828141 26.09357669 -5.375 26.125 C-6.1690625 26.14175781 -6.963125 26.15851563 -7.78125 26.17578125 C-9.85492015 26.19335473 -11.92883241 26.10335168 -14 26 C-16 24 -16 24 -16.1953125 21.8359375 C-16.17210937 21.02382813 -16.14890625 20.21171875 -16.125 19.375 C-16.10695313 18.55773437 -16.08890625 17.74046875 -16.0703125 16.8984375 C-16.04710937 16.27195312 -16.02390625 15.64546875 -16 15 C-13.69 14.34 -11.38 13.68 -9 13 C-9.33 16.63 -9.66 20.26 -10 24 C-7.69 24 -5.38 24 -3 24 C-2.95101563 23.10539062 -2.90203125 22.21078125 -2.8515625 21.2890625 C-2.40311654 14.03660879 -1.67886409 7.07404867 0 0 Z " fill="#109251" transform="translate(412,39)"/>
<path d="M0 0 C9.57 0 19.14 0 29 0 C29 0.99 29 1.98 29 3 C27.68 3 26.36 3 25 3 C24.34 7.95 23.68 12.9 23 18 C22.67 18 22.34 18 22 18 C21.79325056 12.21101581 22.40837921 7.57067277 24 2 C21.69 2 19.38 2 17 2 C16.87882812 3.07378906 16.75765625 4.14757813 16.6328125 5.25390625 C16.46384385 6.69013975 16.29455596 8.12633572 16.125 9.5625 C16.00705078 10.61920898 16.00705078 10.61920898 15.88671875 11.69726562 C15.33366097 16.3131709 14.38804164 20.56176603 13 25 C11.35 25.33 9.7 25.66 8 26 C7.61441969 17.14593366 8.43056454 9.48831358 11 1 C8.69 1.33 6.38 1.66 4 2 C3.67 3.32 3.34 4.64 3 6 C3 5.01 3 4.02 3 3 C2.01 3 1.02 3 0 3 C0 2.01 0 1.02 0 0 Z " fill="#70D5A0" transform="translate(203,37)"/>
<path d="M0 0 C1.98 0 3.96 0 6 0 C5.69224454 3.08382614 5.3779641 6.16695365 5.0625 9.25 C4.97548828 10.12269531 4.88847656 10.99539062 4.79882812 11.89453125 C4.71181641 12.73886719 4.62480469 13.58320312 4.53515625 14.453125 C4.456604 15.22817383 4.37805176 16.00322266 4.29711914 16.80175781 C4.00997086 18.92623038 3.56205228 20.93296525 3 23 C1.68 23 0.36 23 -1 23 C-1 23.66 -1 24.32 -1 25 C3.95 25 8.9 25 14 25 C14 25.33 14 25.66 14 26 C5.42 26 -3.16 26 -12 26 C-9.99107143 11.66964286 -9.99107143 11.66964286 -9 7 C-8.67 7 -8.34 7 -8 7 C-7.78175223 13.0018137 -8.4943096 18.19233704 -10 24 C-8.02 24 -6.04 24 -4 24 C-3.896875 22.824375 -3.79375 21.64875 -3.6875 20.4375 C-2.93619525 13.54317405 -1.42053432 6.78104119 0 0 Z " fill="#74D8A1" transform="translate(262,40)"/>
<path d="M0 0 C1.60294922 0.04060547 1.60294922 0.04060547 3.23828125 0.08203125 C4.04652344 0.11683594 4.85476563 0.15164062 5.6875 0.1875 C5.0275 0.8475 4.3675 1.5075 3.6875 2.1875 C3.31026444 4.52378839 3.182345 6.83054686 3.03125 9.19140625 C2.9178125 9.85011719 2.804375 10.50882813 2.6875 11.1875 C1.6975 11.6825 1.6975 11.6825 0.6875 12.1875 C1.0175 8.8875 1.3475 5.5875 1.6875 2.1875 C0.0375 2.5175 -1.6125 2.8475 -3.3125 3.1875 C-4.9625 11.1075 -6.6125 19.0275 -8.3125 27.1875 C-9.9625 27.1875 -11.6125 27.1875 -13.3125 27.1875 C-14.3125 26.1875 -14.3125 26.1875 -14.5625 23.0625 C-14.49222083 18.77547048 -13.86385375 14.59051487 -13.125 10.375 C-12.90457031 9.08980469 -12.68414062 7.80460937 -12.45703125 6.48046875 C-11.3125 3.1875 -11.3125 3.1875 -9.09375 1.25 C-5.86396192 0.01614837 -3.44727063 -0.11364628 0 0 Z " fill="#1F9F60" transform="translate(362.3125,36.8125)"/>
<path d="M0 0 C-0.78318689 3.91593446 -2.39179858 7.36406635 -4 11 C-5.66611905 11.042721 -7.33382885 11.04063832 -9 11 C-9.33 10.67 -9.66 10.34 -10 10 C-14.13300269 9.80776732 -17.94241601 10.22712686 -22 11 C-24.15305957 7.14243493 -25.39253254 4.44870215 -25 0 C-21.76834156 0.71730736 -18.81292078 1.81315074 -15.75 3.0625 C-14.85796875 3.42472656 -13.9659375 3.78695312 -13.046875 4.16015625 C-12.03367187 4.57587891 -12.03367187 4.57587891 -11 5 C-10.67 4.01 -10.34 3.02 -10 2 C-3.73913043 -1.24637681 -3.73913043 -1.24637681 0 0 Z " fill="#E6E6E6" transform="translate(58,53)"/>
<path d="M0 0 C0.66 0.33 1.32 0.66 2 1 C1.34 1.66 0.68 2.32 0 3 C-1.69002099 10.27126313 -2.25224894 17.55865624 -2 25 C-0.68 25.33 0.64 25.66 2 26 C2 23.69 2 21.38 2 19 C2.66 19 3.32 19 4 19 C4 20.65 4 22.3 4 24 C5.32 24 6.64 24 8 24 C8.495 19.545 8.495 19.545 9 15 C11.97 15 14.94 15 18 15 C16.53848174 23.40372997 16.53848174 23.40372997 14.3984375 25.7734375 C11.08295158 27.46897916 8.00822647 27.39950255 4.375 27.3125 C3.694375 27.31572266 3.01375 27.31894531 2.3125 27.32226562 C-2.73257212 27.26742788 -2.73257212 27.26742788 -5 25 C-6.07169519 17.23368941 -4.56757072 9.3375989 -2 2 C-1.34 1.34 -0.68 0.68 0 0 Z " fill="#4FC584" transform="translate(145,38)"/>
<path d="M0 0 C6.875 0.875 6.875 0.875 8 2 C7.9140625 3.99609375 7.9140625 3.99609375 7.625 6.4375 C7.53476563 7.24058594 7.44453125 8.04367188 7.3515625 8.87109375 C7 11 7 11 6 13 C7.65 13.33 9.3 13.66 11 14 C11 14.33 11 14.66 11 15 C8.72975032 15.08097324 6.45867925 15.13917704 4.1875 15.1875 C2.29064453 15.23970703 2.29064453 15.23970703 0.35546875 15.29296875 C-3 15 -3 15 -4.9375 13.8125 C-6.37153035 11.36621294 -6.2972182 9.62860048 -6.1875 6.8125 C-6.16042969 5.91144531 -6.13335937 5.01039062 -6.10546875 4.08203125 C-6.07066406 3.39496094 -6.03585938 2.70789062 -6 2 C-4.02 2 -2.04 2 0 2 C0 1.34 0 0.68 0 0 Z " fill="#6DD69C" transform="translate(176,51)"/>
<path d="M0 0 C0 1.98 0 3.96 0 6 C-0.33 6 -0.66 6 -1 6 C-1 4.35 -1 2.7 -1 1 C-2.98 1.33 -4.96 1.66 -7 2 C-8.65 9.92 -10.3 17.84 -12 26 C-13.98 26 -15.96 26 -18 26 C-17.71505863 23.33246372 -17.42222725 20.66617278 -17.125 18 C-17.04636719 17.25621094 -16.96773437 16.51242188 -16.88671875 15.74609375 C-16.31465792 10.68555567 -15.32985265 5.91710223 -14 1 C-9.32798795 -0.20568053 -4.78503708 -0.09382426 0 0 Z " fill="#129454" transform="translate(270,38)"/>
<path d="M0 0 C0.66 0.33 1.32 0.66 2 1 C1.67 1.33 1.34 1.66 1 2 C0.92820036 3.51928038 0.91607993 5.04167482 0.9375 6.5625 C0.94652344 7.38878906 0.95554688 8.21507812 0.96484375 9.06640625 C0.97644531 9.70449219 0.98804688 10.34257813 1 11 C1.99 11.33 2.98 11.66 4 12 C4.33 10.35 4.66 8.7 5 7 C5.165 7.598125 5.33 8.19625 5.5 8.8125 C7.83001196 12.2104341 11.20477489 12.75864512 15 14 C15.66 14.33 16.32 14.66 17 15 C17.20839835 18.54277191 17.13623826 21.50744631 16.1875 24.9375 C13.38781739 27.57720074 12.08976046 27.30278982 8.3125 27.3125 C6.54043055 27.23205586 4.7687398 27.13513292 3 27 C4.32 26.67 5.64 26.34 7 26 C7.33 22.37 7.66 18.74 8 15 C5.98177083 14.54427083 3.96354167 14.08854167 1.9453125 13.6328125 C0 13 0 13 -2 11 C-2.265625 8.90625 -2.265625 8.90625 -2.25 6.5 C-2.25515625 5.7059375 -2.2603125 4.911875 -2.265625 4.09375 C-2 2 -2 2 0 0 Z " fill="#43BC7C" transform="translate(175,38)"/>
<path d="M0 0 C3.3 0 6.6 0 10 0 C9.86722656 0.77601562 9.73445312 1.55203125 9.59765625 2.3515625 C8.83297924 7.01959078 8.13493345 11.69652296 7.4375 16.375 C7.29892578 17.30183594 7.16035156 18.22867188 7.01757812 19.18359375 C6.67793893 21.45566286 6.33875865 23.72779947 6 26 C4.35 25.67 2.7 25.34 1 25 C0.66146705 16.83759432 1.70098079 9.04927976 3 1 C2.01 0.67 1.02 0.34 0 0 Z " fill="#129454" transform="translate(204,38)"/>
<path d="M0 0 C1.99954746 -0.04254356 4.00041636 -0.04080783 6 0 C7 1 7 1 7.01953125 3.625 C6.57467545 10.87698897 5.54320367 16.62223339 2 23 C0.02 23 -1.96 23 -4 23 C-3.69255859 21.515 -3.69255859 21.515 -3.37890625 20 C-2.01770919 13.3554414 -0.68925026 6.75465252 0 0 Z " fill="#15915B" transform="translate(306,28)"/>
<path d="M0 0 C1.07138687 3.29760194 0.90279404 5.60429626 0.22265625 8.984375 C-0.05288086 10.38623047 -0.05288086 10.38623047 -0.33398438 11.81640625 C-0.53314453 12.78449219 -0.73230469 13.75257812 -0.9375 14.75 C-1.13279297 15.73355469 -1.32808594 16.71710937 -1.52929688 17.73046875 C-2.01190558 20.15528321 -2.50238859 22.57822773 -3 25 C-4.32 25 -5.64 25 -7 25 C-7 25.66 -7 26.32 -7 27 C-2.05 27 2.9 27 8 27 C8 26.34 8 25.68 8 25 C7.01 25 6.02 25 5 25 C5 21.37 5 17.74 5 14 C6.99954746 13.95745644 9.00041636 13.95919217 11 14 C12 15 12 15 12.09765625 18.59765625 C12.0909822 20.08596867 12.07902183 21.57426432 12.0625 23.0625 C12.05798828 23.82111328 12.05347656 24.57972656 12.04882812 25.36132812 C12.0370068 27.24091871 12.01907078 29.12046899 12 31 C11.01 30.67 10.02 30.34 9 30 C9 29.34 9 28.68 9 28 C3.39 28 -2.22 28 -8 28 C-8 26.68 -8 25.36 -8 24 C-6.68 24 -5.36 24 -4 24 C-3.87153687 23.01604248 -3.87153687 23.01604248 -3.74047852 22.01220703 C-3.35153499 19.049303 -2.95708727 16.08715747 -2.5625 13.125 C-2.42779297 12.09246094 -2.29308594 11.05992188 -2.15429688 9.99609375 C-2.02216797 9.00996094 -1.89003906 8.02382813 -1.75390625 7.0078125 C-1.63345947 6.09660645 -1.5130127 5.18540039 -1.38891602 4.24658203 C-1 2 -1 2 0 0 Z " fill="#8BE1B2" transform="translate(110,38)"/>
<path d="M0 0 C3.96 0 7.92 0 12 0 C11.67 0.99 11.34 1.98 11 3 C11 2.34 11 1.68 11 1 C8.69 1.33 6.38 1.66 4 2 C3.94465088 2.65073486 3.88930176 3.30146973 3.83227539 3.97192383 C3.57946307 6.91912099 3.32104674 9.8658006 3.0625 12.8125 C2.97548828 13.83666016 2.88847656 14.86082031 2.79882812 15.91601562 C2.71181641 16.89892578 2.62480469 17.88183594 2.53515625 18.89453125 C2.456604 19.80050049 2.37805176 20.70646973 2.29711914 21.63989258 C2 24 2 24 1 27 C2.98 27 4.96 27 7 27 C6.96519531 26.33355469 6.93039062 25.66710937 6.89453125 24.98046875 C6.68435633 17.8245132 7.7921587 11.79436875 10 5 C11.25180279 9.21919103 10.67252421 12.96088565 10.0625 17.25 C9.96259766 17.99507812 9.86269531 18.74015625 9.75976562 19.5078125 C9.51319844 21.33945442 9.25749609 23.16986251 9 25 C9.66 25 10.32 25 11 25 C11 26.32 11 27.64 11 29 C5.72 29 0.44 29 -5 29 C-5 27.68 -5 26.36 -5 25 C-3.68 25 -2.36 25 -1 25 C-1.020625 24.05125 -1.04125 23.1025 -1.0625 22.125 C-1 19 -1 19 0 17 C0.38923527 14.63049479 0.7380578 12.2542428 1.0625 9.875 C1.23910156 8.59367187 1.41570312 7.31234375 1.59765625 5.9921875 C1.73042969 5.00476562 1.86320312 4.01734375 2 3 C1.34 3 0.68 3 0 3 C0 2.01 0 1.02 0 0 Z " fill="#67D198" transform="translate(427,37)"/>
<path d="M0 0 C1.51400391 0.01740234 1.51400391 0.01740234 3.05859375 0.03515625 C4.07050781 0.04417969 5.08242188 0.05320312 6.125 0.0625 C7.29869141 0.07990234 7.29869141 0.07990234 8.49609375 0.09765625 C8.53881475 1.7637753 8.53673207 3.4314851 8.49609375 5.09765625 C8.16609375 5.42765625 7.83609375 5.75765625 7.49609375 6.09765625 C7.26245494 7.94657571 7.0830574 9.80253656 6.93359375 11.66015625 C6.84980469 12.67207031 6.76601563 13.68398437 6.6796875 14.7265625 C6.61910156 15.50902344 6.55851562 16.29148437 6.49609375 17.09765625 C4.49654629 17.14019981 2.49567739 17.13846408 0.49609375 17.09765625 C-0.50390625 16.09765625 -0.50390625 16.09765625 -0.6015625 13.8125 C-0.58996094 12.89597656 -0.57835937 11.97945312 -0.56640625 11.03515625 C-0.55738281 10.11605469 -0.54835937 9.19695312 -0.5390625 8.25 C-0.52746094 7.53972656 -0.51585937 6.82945313 -0.50390625 6.09765625 C-1.49390625 6.09765625 -2.48390625 6.09765625 -3.50390625 6.09765625 C-3.54662725 4.4315372 -3.54454457 2.7638274 -3.50390625 1.09765625 C-2.50390625 0.09765625 -2.50390625 0.09765625 0 0 Z " fill="#050505" transform="translate(42.50390625,69.90234375)"/>
<path d="M0 0 C1.65 0 3.3 0 5 0 C4.33742578 7.72422049 3.23535374 15.34800303 2 23 C0.35 23 -1.3 23 -3 23 C-2.88979143 19.91595192 -2.75924186 16.83308808 -2.625 13.75 C-2.5940625 12.87730469 -2.563125 12.00460938 -2.53125 11.10546875 C-2.49257813 10.26113281 -2.45390625 9.41679688 -2.4140625 8.546875 C-2.3826416 7.77182617 -2.3512207 6.99677734 -2.31884766 6.19824219 C-1.96973494 3.79134258 -1.19448896 2.10397705 0 0 Z " fill="#D0F3E1" transform="translate(359,39)"/>
<path d="M0 0 C1.98 0 3.96 0 6 0 C5.67424617 2.33456913 5.33915756 4.66734969 5 7 C4.84273438 8.09699219 4.68546875 9.19398437 4.5234375 10.32421875 C4.35070312 11.49597656 4.17796875 12.66773438 4 13.875 C3.835 15.00679687 3.67 16.13859375 3.5 17.3046875 C3 20 3 20 2 21 C0.33382885 21.04063832 -1.33388095 21.042721 -3 21 C-2.69073032 18.24960167 -2.3777116 15.49971822 -2.0625 12.75 C-1.97548828 11.97269531 -1.88847656 11.19539063 -1.79882812 10.39453125 C-1.71181641 9.64042969 -1.62480469 8.88632812 -1.53515625 8.109375 C-1.456604 7.41811523 -1.37805176 6.72685547 -1.29711914 6.01464844 C-0.99455017 3.96304687 -0.53587616 2.00217465 0 0 Z " fill="#CFF4E0" transform="translate(120,29)"/>
<path d="M0 0 C11.22 0 22.44 0 34 0 C34 0.33 34 0.66 34 1 C24.1 1.33 14.2 1.66 4 2 C3.67 4.97 3.34 7.94 3 11 C2.69295404 13.11844558 2.37028042 15.23472385 2.02734375 17.34765625 C1.85009766 18.44658203 1.67285156 19.54550781 1.49023438 20.67773438 C1.30783203 21.79470703 1.12542969 22.91167969 0.9375 24.0625 C0.6580957 25.79016602 0.6580957 25.79016602 0.37304688 27.55273438 C-0.08266741 30.36881495 -0.54039376 33.18455247 -1 36 C0.98 35.34 2.96 34.68 5 34 C4 37 4 37 1 39 C-1.04296875 39.1953125 -1.04296875 39.1953125 -3.1875 39.125 C-4.445625 39.08375 -5.70375 39.0425 -7 39 C-6.67 38.01 -6.34 37.02 -6 36 C-4.515 35.505 -4.515 35.505 -3 35 C-2.82609741 33.85785034 -2.82609741 33.85785034 -2.64868164 32.69262695 C-2.1211456 29.23240182 -1.59184113 25.77244944 -1.0625 22.3125 C-0.88009766 21.11431641 -0.69769531 19.91613281 -0.50976562 18.68164062 C-0.33251953 17.52470703 -0.15527344 16.36777344 0.02734375 15.17578125 C0.18968506 14.11270752 0.35202637 13.04963379 0.51928711 11.9543457 C0.95325207 9.28730154 1.45040383 6.64533255 2 4 C1.34 4 0.68 4 0 4 C0 2.68 0 1.36 0 0 Z " fill="#79D9A6" transform="translate(238,37)"/>
<path d="M0 0 C1.65 0 3.3 0 5 0 C4.51358785 6.84817102 3.64006048 13.33042073 2 20 C0.35 20.33 -1.3 20.66 -3 21 C-3.15639125 15.93683317 -2.62766071 11.49601562 -1.5 6.5625 C-1.2215625 5.32628906 -0.943125 4.09007812 -0.65625 2.81640625 C-0.4396875 1.88699219 -0.223125 0.95757813 0 0 Z " fill="#D9F6E7" transform="translate(300,29)"/>
<path d="M0 0 C3 1 3 1 4 3 C4.02172852 4.87939453 4.02172852 4.87939453 3.87890625 7.1328125 C3.83056641 7.93847656 3.78222656 8.74414062 3.73242188 9.57421875 C3.64831055 10.83685547 3.64831055 10.83685547 3.5625 12.125 C3.51029297 12.97449219 3.45808594 13.82398438 3.40429688 14.69921875 C3.27448622 16.79979124 3.1378826 18.89994191 3 21 C1.35 20.67 -0.3 20.34 -2 20 C-2.24798276 17.04213336 -2.47411854 14.08538702 -2.6875 11.125 C-2.76033203 10.28324219 -2.83316406 9.44148438 -2.90820312 8.57421875 C-2.96298828 7.76855469 -3.01777344 6.96289062 -3.07421875 6.1328125 C-3.13182373 5.38918457 -3.18942871 4.64555664 -3.2487793 3.87939453 C-3.16668213 3.25919434 -3.08458496 2.63899414 -3 2 C-2.01 1.34 -1.02 0.68 0 0 Z " fill="#169B52" transform="translate(124,50)"/>
<path d="M0 0 C-0.33 3.63 -0.66 7.26 -1 11 C2.96 11.33 6.92 11.66 11 12 C11 9.69 11 7.38 11 5 C11.66 5 12.32 5 13 5 C12.67 7.64 12.34 10.28 12 13 C9.20807795 13.05380578 6.4171859 13.09357669 3.625 13.125 C2.8309375 13.14175781 2.036875 13.15851563 1.21875 13.17578125 C-0.85492015 13.19335473 -2.92883241 13.10335168 -5 13 C-7 11 -7 11 -7.1953125 8.8359375 C-7.17210937 8.02382813 -7.14890625 7.21171875 -7.125 6.375 C-7.10695313 5.55773438 -7.08890625 4.74046875 -7.0703125 3.8984375 C-7.04710937 3.27195313 -7.02390625 2.64546875 -7 2 C-2.25 0 -2.25 0 0 0 Z " fill="#21A55E" transform="translate(403,52)"/>
<path d="M0 0 C3.4165052 -0.08724706 6.83272313 -0.14047325 10.25 -0.1875 C11.70212891 -0.22520508 11.70212891 -0.22520508 13.18359375 -0.26367188 C14.58544922 -0.27817383 14.58544922 -0.27817383 16.015625 -0.29296875 C16.87446289 -0.3086792 17.73330078 -0.32438965 18.61816406 -0.34057617 C21.52491829 0.0750575 22.89143698 0.98595877 25 3 C25.171875 5.26171875 25.171875 5.26171875 24.75 7.6875 C24.62109375 8.49574219 24.4921875 9.30398437 24.359375 10.13671875 C24.24078125 10.75160156 24.1221875 11.36648437 24 12 C21.36 12 18.72 12 16 12 C16 10.68 16 9.36 16 8 C16.66 7.67 17.32 7.34 18 7 C18.33 5.02 18.66 3.04 19 1 C14.05 1.33 9.1 1.66 4 2 C3.67 3.32 3.34 4.64 3 6 C3 5.01 3 4.02 3 3 C2.01 3 1.02 3 0 3 C0 2.01 0 1.02 0 0 Z " fill="#33AC71" transform="translate(318,37)"/>
<path d="M0 0 C1.65 0 3.3 0 5 0 C4.34 6.27 3.68 12.54 3 19 C2.34 19 1.68 19 1 19 C1 19.99 1 20.98 1 22 C-0.32 22 -1.64 22 -3 22 C-2.86722656 21.41734375 -2.73445313 20.8346875 -2.59765625 20.234375 C-1.14906124 13.50951058 -0.44789343 6.85984142 0 0 Z " fill="#E0F8EB" transform="translate(263,40)"/>
<path d="M0 0 C0.66 0.33 1.32 0.66 2 1 C1.34 1.66 0.68 2.32 0 3 C-0.40047444 5.32275177 -0.7397104 7.65739357 -1 10 C0.65 10 2.3 10 4 10 C4.66 7.36 5.32 4.72 6 2 C7.65 2 9.3 2 11 2 C11.1953125 8.0546875 11.1953125 8.0546875 11 10 C8.36451539 12.63548461 6.67645078 12.64649512 3 13 C-0.375 12.5625 -0.375 12.5625 -3 12 C-3.36923077 4.61538462 -3.36923077 4.61538462 -1.5 1.5 C-1.005 1.005 -0.51 0.51 0 0 Z " fill="#6CD39D" transform="translate(399,38)"/>
<path d="M0 0 C0.99 0 1.98 0 3 0 C2.44210432 7.01524148 1.81552077 14.00982196 1 21 C-0.65 21.33 -2.3 21.66 -4 22 C-3.4627389 14.30868322 -2.44480798 7.33442395 0 0 Z " fill="#EAFAF1" transform="translate(215,41)"/>
<path d="M0 0 C2.31 0.33 4.62 0.66 7 1 C6.39456125 5.94441643 5.39004992 10.13482528 4 15 C10.27 15 16.54 15 23 15 C18.77746115 17.11126943 16.85998477 17.2171997 12.25 17.125 C10.49429688 17.09792969 10.49429688 17.09792969 8.703125 17.0703125 C7.81109375 17.04710938 6.9190625 17.02390625 6 17 C6 17.66 6 18.32 6 19 C7.32 19 8.64 19 10 19 C9.67 19.66 9.34 20.32 9 21 C6.17049784 20.26523179 3.55019664 19.44654011 1 18 C-0.1875 15 -0.1875 15 0 12 C1.3125 10.4375 1.3125 10.4375 3 9 C4.19027984 6.40084462 4.19027984 6.40084462 5 4 C4.360625 3.896875 3.72125 3.79375 3.0625 3.6875 C2.381875 3.460625 1.70125 3.23375 1 3 C0.67 2.01 0.34 1.02 0 0 Z " fill="#6A6A6A" transform="translate(32,35)"/>
<path d="M0 0 C2.97 0 5.94 0 9 0 C7.25 8.75 7.25 8.75 5 11 C1.875 11.125 1.875 11.125 -1 11 C-0.67 7.37 -0.34 3.74 0 0 Z " fill="#29A964" transform="translate(154,53)"/>
<path d="M0 0 C1.65 0 3.3 0 5 0 C5 2.97 5 5.94 5 9 C7.31 9 9.62 9 12 9 C12.33 6.03 12.66 3.06 13 0 C13.66 0 14.32 0 15 0 C14.67 2.97 14.34 5.94 14 9 C12.68 9.33 11.36 9.66 10 10 C9.67 10.99 9.34 11.98 9 13 C4.545 11.02 4.545 11.02 0 9 C0 6.03 0 3.06 0 0 Z " fill="#DCF7E8" transform="translate(181,40)"/>
<path d="M0 0 C3.29159316 -0.05790353 6.58305603 -0.09356261 9.875 -0.125 C10.81214844 -0.14175781 11.74929687 -0.15851562 12.71484375 -0.17578125 C13.61074219 -0.18222656 14.50664063 -0.18867188 15.4296875 -0.1953125 C16.25710449 -0.20578613 17.08452148 -0.21625977 17.93701172 -0.22705078 C20 0 20 0 22 2 C20.68 2 19.36 2 18 2 C17.67 3.32 17.34 4.64 17 6 C17 5.01 17 4.02 17 3 C15.02 3 13.04 3 11 3 C10.67 4.32 10.34 5.64 10 7 C10 5.35 10 3.7 10 2 C8.02 2 6.04 2 4 2 C4.020625 3.19625 4.04125 4.3925 4.0625 5.625 C4.06882571 9.18004869 3.69888875 12.50555624 3 16 C2.67 16 2.34 16 2 16 C1.92345464 11.48382401 1.89771304 7.40914783 3 3 C2.01 3 1.02 3 0 3 C0 2.01 0 1.02 0 0 Z " fill="#3FB47F" transform="translate(109,26)"/>
<path d="M0 0 C0.33 0 0.66 0 1 0 C1 1.65 1 3.3 1 5 C1.99 5 2.98 5 4 5 C4.14285714 13.57142857 4.14285714 13.57142857 3 17 C1.68 17 0.36 17 -1 17 C-0.98839844 16.31292969 -0.97679687 15.62585938 -0.96484375 14.91796875 C-0.95582031 14.01691406 -0.94679687 13.11585937 -0.9375 12.1875 C-0.92589844 11.29417969 -0.91429687 10.40085937 -0.90234375 9.48046875 C-0.88990033 6.86586209 -0.88990033 6.86586209 -2 4 C-1.0625 1.8125 -1.0625 1.8125 0 0 Z " fill="#393939" transform="translate(38,71)"/>
<path d="M0 0 C1.3303125 1.1446875 1.3303125 1.1446875 2.6875 2.3125 C5.31488818 4.50927111 8.00371753 6.32560685 11 8 C10.67 9.65 10.34 11.3 10 13 C9.54109375 12.65066406 9.0821875 12.30132812 8.609375 11.94140625 C7.99578125 11.48636719 7.3821875 11.03132813 6.75 10.5625 C6.14671875 10.11003906 5.5434375 9.65757813 4.921875 9.19140625 C2.93707244 7.96099003 1.28012345 7.43887332 -1 7 C-1.33 5.35 -1.66 3.7 -2 2 C-1.34 2 -0.68 2 0 2 C0 1.34 0 0.68 0 0 Z " fill="#1B1B1B" transform="translate(72,43)"/>
<path d="M0 0 C-0.33 3.63 -0.66 7.26 -1 11 C-2.98 11 -4.96 11 -7 11 C-6.8864371 9.35333797 -6.75882619 7.70763918 -6.625 6.0625 C-6.55539062 5.14597656 -6.48578125 4.22945312 -6.4140625 3.28515625 C-6.27742188 2.53105469 -6.14078125 1.77695312 -6 1 C-4 0 -4 0 0 0 Z " fill="#C8F2DB" transform="translate(409,52)"/>
<path d="M0 0 C0.78375 0.04125 1.5675 0.0825 2.375 0.125 C1.86702991 4.4427458 1.17817221 8.15802114 -0.625 12.125 C-1.945 11.795 -3.265 11.465 -4.625 11.125 C-4.67899736 9.66707116 -4.71779177 8.20857288 -4.75 6.75 C-4.78480469 5.53183594 -4.78480469 5.53183594 -4.8203125 4.2890625 C-4.51136441 0.86591762 -3.34090594 0.15909076 0 0 Z " fill="#129157" transform="translate(179.625,37.875)"/>
<path d="M0 0 C6.93 0 13.86 0 21 0 C21 0.33 21 0.66 21 1 C12.585 1.495 12.585 1.495 4 2 C4.33 2.33 4.66 2.66 5 3 C5.16017882 7.16464926 4.98248196 10.94726192 4 15 C3.34 15 2.68 15 2 15 C2 16.98 2 18.96 2 21 C1.67 21 1.34 21 1 21 C0.78175223 14.9981863 1.4943096 9.80766296 3 4 C2.01 4 1.02 4 0 4 C0 2.68 0 1.36 0 0 Z " fill="#77D6A7" transform="translate(288,26)"/>
<path d="M0 0 C2.05078125 0.03255208 4.1015625 0.06510417 6.15234375 0.09765625 C5.82234375 2.40765625 5.49234375 4.71765625 5.15234375 7.09765625 C2.51234375 7.09765625 -0.12765625 7.09765625 -2.84765625 7.09765625 C-2.89019981 5.09810879 -2.88846408 3.09723989 -2.84765625 1.09765625 C-1.84765625 0.09765625 -1.84765625 0.09765625 0 0 Z " fill="#5ACB8D" transform="translate(379.84765625,57.90234375)"/>
<path d="M0 0 C4.03520597 1.58962659 8.01811282 3.28232318 12 5 C12 6.98 12 8.96 12 11 C2.85651505 6.62799385 2.85651505 6.62799385 0 4 C-0.33 3.01 -0.66 2.02 -1 1 C-0.67 0.67 -0.34 0.34 0 0 Z " fill="#181818" transform="translate(72,38)"/>
<path d="M0 0 C0.33 0.66 0.66 1.32 1 2 C1.66 2 2.32 2 3 2 C2.98839844 3.18078125 2.97679687 4.3615625 2.96484375 5.578125 C2.95546248 7.13541508 2.94636264 8.69270688 2.9375 10.25 C2.92912109 11.02730469 2.92074219 11.80460937 2.91210938 12.60546875 C2.90727539 13.73662109 2.90727539 13.73662109 2.90234375 14.890625 C2.89710693 15.58188477 2.89187012 16.27314453 2.88647461 16.98535156 C3.00562029 19.09973898 3.42381763 20.96641515 4 23 C1.125 23.125 1.125 23.125 -2 23 C-2.66 22.34 -3.32 21.68 -4 21 C-2.68 21 -1.36 21 0 21 C0 19.73542969 0 18.47085938 0 17.16796875 C0 11.4453125 0 5.72265625 0 0 Z " fill="#65CF95" transform="translate(127,50)"/>
<path d="M0 0 C-0.99 3.3 -1.98 6.6 -3 10 C-4.65 10 -6.3 10 -8 10 C-8.36272727 3.59181818 -8.36272727 3.59181818 -6.8125 1.0625 C-5 0 -5 0 0 0 Z " fill="#119157" transform="translate(406,38)"/>
<path d="M0 0 C3.3 0.33 6.6 0.66 10 1 C10 1.99 10 2.98 10 4 C9 5 9 5 6.56640625 5.1328125 C5.07947266 5.12894531 5.07947266 5.12894531 3.5625 5.125 C2.07943359 5.12886719 2.07943359 5.12886719 0.56640625 5.1328125 C-2 5 -2 5 -4 4 C-4 3.34 -4 2.68 -4 2 C-2.68 2 -1.36 2 0 2 C0 1.34 0 0.68 0 0 Z " fill="#E2E2E2" transform="translate(42,64)"/>
<path d="M0 0 C1.37432457 3.81756824 0.67975039 7.07255329 0 11 C1.65 11 3.3 11 5 11 C5 11.66 5 12.32 5 13 C6.98 12.67 8.96 12.34 11 12 C11 10.35 11 8.7 11 7 C11.66 6.67 12.32 6.34 13 6 C12.74438677 8.3431213 12.40729228 10.67843403 12 13 C8.93466836 14.53266582 5.73245728 14.10276471 2.375 14.0625 C1.66859375 14.05798828 0.9621875 14.05347656 0.234375 14.04882812 C-1.51045275 14.03703875 -3.255237 14.01910324 -5 14 C-4.01 13.67 -3.02 13.34 -2 13 C-1.93941406 12.31292969 -1.87882812 11.62585937 -1.81640625 10.91796875 C-1.73261719 10.01691406 -1.64882813 9.11585937 -1.5625 8.1875 C-1.48128906 7.29417969 -1.40007812 6.40085937 -1.31640625 5.48046875 C-1 3 -1 3 0 0 Z " fill="#4FC584" transform="translate(356,51)"/>
<path d="M0 0 C2.08268593 -0.08126087 4.16628658 -0.13930839 6.25 -0.1875 C7.99023438 -0.23970703 7.99023438 -0.23970703 9.765625 -0.29296875 C13.27409791 0.02482771 14.7068725 0.32945002 17 3 C17.20703125 5.5234375 17.20703125 5.5234375 16.8125 8.375 C16.69519531 9.31085937 16.57789063 10.24671875 16.45703125 11.2109375 C16.02915848 13.82205851 15.54149498 16.41024141 15 19 C14.67 19 14.34 19 14 19 C14 13.72 14 8.44 14 3 C12.68 2.67 11.36 2.34 10 2 C10 3.65 10 5.3 10 7 C9.67 7 9.34 7 9 7 C9 5.35 9 3.7 9 2 C6.03 1.67 3.06 1.34 0 1 C0 0.67 0 0.34 0 0 Z " fill="#49BD83" transform="translate(402,37)"/>
<path d="M0 0 C1.98 0 3.96 0 6 0 C5.67 3.3 5.34 6.6 5 10 C3.35 9.67 1.7 9.34 0 9 C0 6.03 0 3.06 0 0 Z " fill="#139851" transform="translate(172,54)"/>
<path d="M0 0 C1.32 0 2.64 0 4 0 C5.11445498 2.22890995 5.16480286 3.53055106 5.1875 6 C5.20167969 6.70125 5.21585938 7.4025 5.23046875 8.125 C5 10 5 10 3 12 C1.68 12 0.36 12 -1 12 C-0.67 8.04 -0.34 4.08 0 0 Z " fill="#129750" transform="translate(185,52)"/>
<path d="M0 0 C1.1446875 0.2475 1.1446875 0.2475 2.3125 0.5 C6.43394495 1.26678046 9.90842057 0.7273919 14 0 C14 1.65 14 3.3 14 5 C3.44191344 5.18451025 3.44191344 5.18451025 -1 4 C-0.34 3.67 0.32 3.34 1 3 C0.67 2.01 0.34 1.02 0 0 Z " fill="#808080" transform="translate(39,15)"/>
<path d="M0 0 C2.5625 0.1875 2.5625 0.1875 4.5625 2.1875 C4.6875 5.3125 4.6875 5.3125 4.5625 8.1875 C3.5725 8.5175 2.5825 8.8475 1.5625 9.1875 C1.5625 7.5375 1.5625 5.8875 1.5625 4.1875 C-1.4075 4.8475 -4.3775 5.5075 -7.4375 6.1875 C-6.7775 5.8575 -6.1175 5.5275 -5.4375 5.1875 C-4.73812468 3.87102881 -4.07020867 2.53727849 -3.4375 1.1875 C-2.4375 0.1875 -2.4375 0.1875 0 0 Z " fill="#E7E7E7" transform="translate(63.4375,17.8125)"/>
<path d="M0 0 C4.95 0 9.9 0 15 0 C13.515 1.485 13.515 1.485 12 3 C11.525625 3.5775 11.05125 4.155 10.5625 4.75 C9 6 9 6 6.875 5.875 C6.25625 5.58625 5.6375 5.2975 5 5 C4.67 4.01 4.34 3.02 4 2 C2.68 2 1.36 2 0 2 C0 1.34 0 0.68 0 0 Z " fill="#0B0B0B" transform="translate(38,52)"/>
<path d="M0 0 C1.65 0.33 3.3 0.66 5 1 C5 3.64 5 6.28 5 9 C3.02 9 1.04 9 -1 9 C-0.67 6.03 -0.34 3.06 0 0 Z " fill="#0E8D53" transform="translate(158,39)"/>
<path d="M0 0 C2.5625 0.375 2.5625 0.375 4.375 2.375 C4.766875 3.035 5.15875 3.695 5.5625 4.375 C2.5625 5.375 2.5625 5.375 -0.4375 5.375 C-0.7675 7.025 -1.0975 8.675 -1.4375 10.375 C-3.72523145 8.56387927 -4.38959822 7.76779457 -4.75 4.8125 C-4.31427003 1.41380626 -3.37697145 0.51953407 0 0 Z " fill="#CACACA" transform="translate(26.4375,17.625)"/>
<path d="M0 0 C0.33 0.66 0.66 1.32 1 2 C0.52949219 2.53367188 0.05898438 3.06734375 -0.42578125 3.6171875 C-5.03390984 9.13167679 -7.46265273 13.98676815 -9 21 C-9.33 20.01 -9.66 19.02 -10 18 C-10.66 18 -11.32 18 -12 18 C-9.97475536 10.45136087 -5.58048234 5.26159763 0 0 Z " fill="#B0B0B0" transform="translate(24,50)"/>
<path d="M0 0 C1.2065625 0.0309375 1.2065625 0.0309375 2.4375 0.0625 C2.5625 5.8125 2.5625 5.8125 1.4375 8.0625 C-0.2125 8.0625 -1.8625 8.0625 -3.5625 8.0625 C-3.60491723 5.72955225 -3.60342937 3.39547433 -3.5625 1.0625 C-2.5625 0.0625 -2.5625 0.0625 0 0 Z " fill="#93E5B9" transform="translate(154.5625,38.9375)"/>
<path d="M0 0 C2.31 0 4.62 0 7 0 C7 1.98 7 3.96 7 6 C4.36 6 1.72 6 -1 6 C-0.67 4.02 -0.34 2.04 0 0 Z " fill="#2DA872" transform="translate(433,27)"/>
<path d="M0 0 C0.66 0.33 1.32 0.66 2 1 C1.01 3.97 0.02 6.94 -1 10 C-1.99 9.67 -2.98 9.34 -4 9 C-4 8.34 -4 7.68 -4 7 C-5.98 7 -7.96 7 -10 7 C-10 6.01 -10 5.02 -10 4 C-7.98177083 3.54427083 -5.96354167 3.08854167 -3.9453125 2.6328125 C-1.79280036 2.09525572 -1.79280036 2.09525572 0 0 Z " fill="#0D0D0D" transform="translate(23,15)"/>
<path d="M0 0 C2.475 0.495 2.475 0.495 5 1 C5 3.64 5 6.28 5 9 C3.35 9 1.7 9 0 9 C0 6.03 0 3.06 0 0 Z " fill="#0D8B52" transform="translate(188,39)"/>
<path d="M0 0 C1.65 0 3.3 0 5 0 C4.67 2.97 4.34 5.94 4 9 C2.68 9 1.36 9 0 9 C0 6.03 0 3.06 0 0 Z " fill="#E1F9EC" transform="translate(179,53)"/>
<path d="M0 0 C0.66 0.33 1.32 0.66 2 1 C2.33 1.99 2.66 2.98 3 4 C-1.18586481 7.18923033 -3.70558305 8.50423019 -9 8 C-8.01 7.67 -7.02 7.34 -6 7 C-6 6.01 -6 5.02 -6 4 C-3 1.8125 -3 1.8125 0 0 Z " fill="#616161" transform="translate(22,11)"/>
<path d="M0 0 C0.556875 0.721875 1.11375 1.44375 1.6875 2.1875 C3.96384038 5.04880285 3.96384038 5.04880285 6.625 7.625 C11 12 11 12 11 16 C11.66 16 12.32 16 13 16 C13 16.66 13 17.32 13 18 C11.12109375 17.73046875 11.12109375 17.73046875 9 17 C7.91015625 15.36328125 7.91015625 15.36328125 7.0625 13.3125 C5.7411951 10.37509707 4.39517202 8.09250976 2.25 5.6875 C0 3 0 3 0 0 Z " fill="#C7C7C7" transform="translate(66,49)"/>
<path d="M0 0 C1.32 0 2.64 0 4 0 C4 2.64 4 5.28 4 8 C2.35 8.33 0.7 8.66 -1 9 C-0.67 6.03 -0.34 3.06 0 0 Z " fill="#DFF9EB" transform="translate(406,40)"/>
<path d="M0 0 C0.33 0.99 0.66 1.98 1 3 C1.99 2.34 2.98 1.68 4 1 C4.99 1 5.98 1 7 1 C6.67 2.32 6.34 3.64 6 5 C4.68 5.33 3.36 5.66 2 6 C2.515625 6.928125 3.03125 7.85625 3.5625 8.8125 C5 12 5 12 4 15 C1.31333861 9.8185816 -0.27625249 5.93942843 0 0 Z " fill="#545454" transform="translate(51,33)"/>
<path d="M0 0 C0.33 0.99 0.66 1.98 1 3 C2.98 3 4.96 3 7 3 C7 3.66 7 4.32 7 5 C0.5 8 0.5 8 -4 8 C-3.34 6.35 -2.68 4.7 -2 3 C-1.34 3 -0.68 3 0 3 C0 2.01 0 1.02 0 0 Z " fill="#494949" transform="translate(12,19)"/>
<path d="M0 0 C1.32 0 2.64 0 4 0 C3.67 2.97 3.34 5.94 3 9 C1.68 9 0.36 9 -1 9 C-0.67 6.03 -0.34 3.06 0 0 Z " fill="#F4FDF8" transform="translate(117,53)"/>
<path d="M0 0 C0.66 0.33 1.32 0.66 2 1 C1.34 1.66 0.68 2.32 0 3 C-0.45662153 5.19291082 -0.820412 7.40585889 -1.125 9.625 C-1.29257813 10.81351563 -1.46015625 12.00203125 -1.6328125 13.2265625 C-1.75398437 14.14179687 -1.87515625 15.05703125 -2 16 C-2.66 16 -3.32 16 -4 16 C-4 18.97 -4 21.94 -4 25 C-4.33 25 -4.66 25 -5 25 C-5.42651325 16.97523211 -4.66803667 9.62471031 -2 2 C-1.34 1.34 -0.68 0.68 0 0 Z " fill="#6ED39E" transform="translate(145,38)"/>
<path d="M0 0 C2.10388569 -0.05402274 4.20816714 -0.09280256 6.3125 -0.125 C8.07013672 -0.15980469 8.07013672 -0.15980469 9.86328125 -0.1953125 C13 0 13 0 16 2 C16.40843923 4.71203652 16.13336867 7.2437142 16 10 C15.67 10 15.34 10 15 10 C14.67 7.69 14.34 5.38 14 3 C12.68 2.67 11.36 2.34 10 2 C10 3.65 10 5.3 10 7 C9.67 7 9.34 7 9 7 C9 5.35 9 3.7 9 2 C6.03 1.67 3.06 1.34 0 1 C0 0.67 0 0.34 0 0 Z " fill="#3AB579" transform="translate(148,37)"/>
<path d="M0 0 C3.48381186 4.01978291 6.0325429 8.37381318 8.6328125 12.98828125 C9.08398438 13.65214844 9.53515625 14.31601563 10 15 C10.66 15 11.32 15 12 15 C12 15.66 12 16.32 12 17 C9.703125 16.828125 9.703125 16.828125 7 16 C5.234375 13.671875 5.234375 13.671875 3.75 10.75 C3.24984375 9.79609375 2.7496875 8.8421875 2.234375 7.859375 C1.08758088 5.20287724 0.43680128 2.84960835 0 0 Z " fill="#B6B6B6" transform="translate(63,56)"/>
<path d="M0 0 C0.66 0 1.32 0 2 0 C1.67 2.97 1.34 5.94 1 9 C-0.32 9.33 -1.64 9.66 -3 10 C-3.33 10.99 -3.66 11.98 -4 13 C-5.65 12.01 -7.3 11.02 -9 10 C-8.67 9.01 -8.34 8.02 -8 7 C-8 7.66 -8 8.32 -8 9 C-5.69 9 -3.38 9 -1 9 C-0.67 6.03 -0.34 3.06 0 0 Z " fill="#A8EBC7" transform="translate(194,40)"/>
<path d="M0 0 C0.33 0.66 0.66 1.32 1 2 C-2.3621637 5.65882521 -5.36050852 8.14420341 -10 10 C-10.66 9.67 -11.32 9.34 -12 9 C-12 6.69 -12 4.38 -12 2 C-11.67 2 -11.34 2 -11 2 C-10.67 3.65 -10.34 5.3 -10 7 C-8.51990357 6.02223933 -7.04094856 5.0427506 -5.5625 4.0625 C-4.73878906 3.51722656 -3.91507813 2.97195312 -3.06640625 2.41015625 C-1.10014075 1.16197019 -1.10014075 1.16197019 0 0 Z " fill="#A4A4A4" transform="translate(18,41)"/>
<path d="M0 0 C0.33 0 0.66 0 1 0 C1.12086218 6.43255401 0.82351864 12.61773055 0 19 C-0.99 19.33 -1.98 19.66 -3 20 C-2.45136137 13.2142064 -1.45732062 6.64990964 0 0 Z " fill="#53C08A" transform="translate(132,29)"/>
<path d="M0 0 C-0.66 0.66 -1.32 1.32 -2 2 C-4.3828125 1.7578125 -4.3828125 1.7578125 -7.125 1.125 C-8.03507812 0.92132813 -8.94515625 0.71765625 -9.8828125 0.5078125 C-10.58148438 0.34023437 -11.28015625 0.17265625 -12 0 C-12 0.66 -12 1.32 -12 2 C-13.32 2 -14.64 2 -16 2 C-16.33 2.66 -16.66 3.32 -17 4 C-17 2.68 -17 1.36 -17 0 C-10.85771362 -2.89048771 -6.25636171 -2.38337589 0 0 Z " fill="#535353" transform="translate(54,64)"/>
<path d="M0 0 C0.44730469 0.34933594 0.89460938 0.69867188 1.35546875 1.05859375 C4.85023956 3.68898628 7.51278557 5.59207142 12 6 C12.33 4.68 12.66 3.36 13 2 C13 3.98 13 5.96 13 8 C9.54248209 9.15250597 9.06872056 8.90842016 5.9375 7.375 C2.99508247 5.83090566 2.1384208 5.25377146 0.5 2.25 C0.335 1.5075 0.17 0.765 0 0 Z " fill="#979797" transform="translate(72,34)"/>
<path d="M0 0 C0.33 0.66 0.66 1.32 1 2 C2.98 1.34 4.96 0.68 7 0 C6 3 6 3 3 5 C0.95703125 5.1953125 0.95703125 5.1953125 -1.1875 5.125 C-3.0746875 5.063125 -3.0746875 5.063125 -5 5 C-4 2 -4 2 -1.9375 0.8125 C-1.298125 0.544375 -0.65875 0.27625 0 0 Z " fill="#69D497" transform="translate(236,71)"/>
<path d="M0 0 C0.33 0 0.66 0 1 0 C1 1.98 1 3.96 1 6 C2.65 6 4.3 6 6 6 C6.33 5.34 6.66 4.68 7 4 C7 4.99 7 5.98 7 7 C8.98 7 10.96 7 13 7 C13 7.33 13 7.66 13 8 C8.38 8 3.76 8 -1 8 C-0.67 5.36 -0.34 2.72 0 0 Z " fill="#30B270" transform="translate(150,41)"/>
<path d="M0 0 C0.33 0 0.66 0 1 0 C1.19818283 6.70518586 1.30844801 12.65176798 -1 19 C-1.33 19 -1.66 19 -2 19 C-1.85913398 16.39547729 -1.71251536 13.79149803 -1.5625 11.1875 C-1.50352539 10.08051758 -1.50352539 10.08051758 -1.44335938 8.95117188 C-1.25618965 5.76928658 -1.01279207 3.03837622 0 0 Z " fill="#94E0B8" transform="translate(262,40)"/>
<path d="M0 0 C3.43198603 1.23932829 6.30325632 2.50301511 9 5 C9 8.10551666 8.4606285 9.35261084 7 12 C6.773125 11.0925 6.54625 10.185 6.3125 9.25 C4.81149298 5.5332207 3.16878017 4.33489065 0 2 C0 1.34 0 0.68 0 0 Z " fill="#B2B2B2" transform="translate(73,50)"/>
<path d="M0 0 C1.051875 0.763125 2.10375 1.52625 3.1875 2.3125 C6.04744265 4.35863783 8.95019284 6.24405042 12 8 C11.34 8.66 10.68 9.32 10 10 C8.51180543 9.0980639 7.03467187 8.17785871 5.5625 7.25 C4.73878906 6.73953125 3.91507812 6.2290625 3.06640625 5.703125 C0.78255407 3.8207818 0.34485543 2.8842454 0 0 Z " fill="#999999" transform="translate(72,41)"/>
<path d="M0 0 C0.66 0 1.32 0 2 0 C2.33 0.99 2.66 1.98 3 3 C0.35261084 4.4606285 -0.89448334 5 -4 5 C-4.33 6.65 -4.66 8.3 -5 10 C-5.33 10 -5.66 10 -6 10 C-6 7.69 -6 5.38 -6 3 C-5.38125 2.855625 -4.7625 2.71125 -4.125 2.5625 C-1.96741678 2.06847775 -1.96741678 2.06847775 0 1 C0 0.67 0 0.34 0 0 Z " fill="#454545" transform="translate(31,20)"/>
<path d="M0 0 C0.66 0.33 1.32 0.66 2 1 C1.195625 1.886875 0.39125 2.77375 -0.4375 3.6875 C-2.7039159 6.38287032 -3.68417366 8.42063478 -4 12 C-5.20628008 9.66785852 -6.1654738 7.50357861 -7 5 C-4.69 3.35 -2.38 1.7 0 0 Z " fill="#B0B0B0" transform="translate(15,51)"/>
<path d="M0 0 C0.33 0 0.66 0 1 0 C1.08159574 4.16138263 0.98248524 7.9472484 0 12 C-0.66 12 -1.32 12 -2 12 C-2 13.98 -2 15.96 -2 18 C-2.33 18 -2.66 18 -3 18 C-3.36517527 11.42684522 -2.13619737 6.20514474 0 0 Z " fill="#62CA96" transform="translate(292,29)"/>
<path d="M0 0 C0.33 0.99 0.66 1.98 1 3 C-2.69948187 6.61139896 -2.69948187 6.61139896 -5 8 C-8.375 7.8125 -8.375 7.8125 -11 7 C-10.443125 6.731875 -9.88625 6.46375 -9.3125 6.1875 C-5.87710021 4.42337578 -2.74206894 2.74206894 0 0 Z " fill="#7C7C7C" transform="translate(18,34)"/>
<path d="M0 0 C0 1.65 0 3.3 0 5 C0.66 5.33 1.32 5.66 2 6 C1.01 6.33 0.02 6.66 -1 7 C-1.66 6.01 -2.32 5.02 -3 4 C-3.99 3.67 -4.98 3.34 -6 3 C-6 2.34 -6 1.68 -6 1 C-4 0 -4 0 0 0 Z " fill="#444444" transform="translate(65,22)"/>
<path d="M0 0 C0 1.65 0 3.3 0 5 C-1.98 5 -3.96 5 -6 5 C-6.33 4.01 -6.66 3.02 -7 2 C-4 0 -4 0 0 0 Z " fill="#4E4E4E" transform="translate(53,15)"/>
<path d="M0 0 C1.98 0 3.96 0 6 0 C6 1.32 6 2.64 6 4 C4.02 4 2.04 4 0 4 C0 2.68 0 1.36 0 0 Z " fill="#149A50" transform="translate(378,60)"/>
<path d="M0 0 C2.03144641 0.93446535 4.03533587 1.93224776 6 3 C6 3.66 6 4.32 6 5 C4.25 5.6875 4.25 5.6875 2 6 C-0.25 4.6875 -0.25 4.6875 -2 3 C-2 2.34 -2 1.68 -2 1 C-1.34 0.67 -0.68 0.34 0 0 Z " fill="#515151" transform="translate(68,12)"/>
<path d="M0 0 C2.31 0 4.62 0 7 0 C7 1.98 7 3.96 7 6 C6.01 6.495 6.01 6.495 5 7 C5 5.35 5 3.7 5 2 C3.35 2 1.7 2 0 2 C0 1.34 0 0.68 0 0 Z " fill="#30AD71" transform="translate(330,38)"/>
<path d="M0 0 C0.33 0 0.66 0 1 0 C1.29047722 5.61589298 1.10842092 9.09825932 -2 14 C-2.99 14.495 -2.99 14.495 -4 15 C-3.79503906 14.41992188 -3.59007812 13.83984375 -3.37890625 13.2421875 C-1.85990187 8.8378016 -0.5952849 4.64322223 0 0 Z " fill="#97E1BA" transform="translate(312,36)"/>
<path d="M0 0 C1.32 0 2.64 0 4 0 C3.67 1.98 3.34 3.96 3 6 C2.01 6 1.02 6 0 6 C0 4.02 0 2.04 0 0 Z " fill="#EBFBF2" transform="translate(152,40)"/>
<path d="M0 0 C1.2065625 0.0309375 1.2065625 0.0309375 2.4375 0.0625 C0.4575 1.0525 0.4575 1.0525 -1.5625 2.0625 C-0.9025 2.7225 -0.2425 3.3825 0.4375 4.0625 C-4.1875 6.1875 -4.1875 6.1875 -7.5625 5.0625 C-6.9025 5.0625 -6.2425 5.0625 -5.5625 5.0625 C-5.0984375 4.1034375 -5.0984375 4.1034375 -4.625 3.125 C-3.05351796 0.07447605 -3.05351796 0.07447605 0 0 Z " fill="#B6B6B6" transform="translate(63.5625,17.9375)"/>
<path d="M0 0 C1 2 1 2 0.22265625 4.3828125 C-0.16019531 5.28773437 -0.54304688 6.19265625 -0.9375 7.125 C-1.31777344 8.03507812 -1.69804687 8.94515625 -2.08984375 9.8828125 C-2.39019531 10.58148438 -2.69054687 11.28015625 -3 12 C-4.1484375 10.265625 -4.1484375 10.265625 -5 8 C-4.1015625 5.859375 -4.1015625 5.859375 -2.625 3.75 C-2.14289062 3.04359375 -1.66078125 2.3371875 -1.1640625 1.609375 C-0.77992187 1.07828125 -0.39578125 0.5471875 0 0 Z " fill="#A8A8A8" transform="translate(29,66)"/>
<path d="M0 0 C1.65 0 3.3 0 5 0 C5 1.32 5 2.64 5 4 C3.35 4 1.7 4 0 4 C0 2.68 0 1.36 0 0 Z " fill="#098255" transform="translate(434,28)"/>
<path d="M0 0 C0.33 0.66 0.66 1.32 1 2 C-0.65 3.65 -2.3 5.3 -4 7 C-4.99 6.34 -5.98 5.68 -7 5 C-6.030625 4.360625 -5.06125 3.72125 -4.0625 3.0625 C-1.23963731 1.3034741 -1.23963731 1.3034741 0 0 Z " fill="#818181" transform="translate(18,41)"/>
<path d="M0 0 C2.475 0.495 2.475 0.495 5 1 C5.33 1.99 5.66 2.98 6 4 C4.35 3.67 2.7 3.34 1 3 C0.67 2.01 0.34 1.02 0 0 Z " fill="#2A2A2A" transform="translate(32,35)"/>
<path d="M0 0 C1.65 0.33 3.3 0.66 5 1 C5 1.99 5 2.98 5 4 C3.02 3.34 1.04 2.68 -1 2 C-0.67 1.34 -0.34 0.68 0 0 Z " fill="#E0E0E0" transform="translate(26,19)"/>
<path d="M0 0 C0.598125 0.763125 1.19625 1.52625 1.8125 2.3125 C3.46959332 4.3483575 5.10297674 6.1978279 7 8 C6.01 8 5.02 8 4 8 C0 3.77142857 0 3.77142857 0 0 Z " fill="#8F8F8F" transform="translate(66,49)"/>
</svg>
